<svg id="ww-set2-star" width="100%" height="100%" viewBox="0 0 32 32" xmlns="http://www.w3.org/2000/svg" fill="rgb(245, 197, 24)"><path d="M24.6251 30.001C24.4146 30.0018 24.2092 29.9362 24.0382 29.8135L16.0001 23.986L7.96193 29.8135C7.7902 29.938 7.58331 30.0047 7.37117 30.004C7.15903 30.0032 6.95263 29.935 6.78181 29.8092C6.61099 29.6834 6.4846 29.5065 6.42092 29.3041C6.35724 29.1018 6.35956 28.8844 6.42756 28.6835L9.56256 19.3978L1.43756 13.826C1.26156 13.7054 1.12874 13.5317 1.05848 13.3303C0.988219 13.1289 0.984214 12.9103 1.04705 12.7064C1.10988 12.5025 1.23626 12.3241 1.40772 12.1972C1.57918 12.0703 1.78673 12.0015 2.00006 12.001H12.0238L15.0488 2.69158C15.114 2.49059 15.2411 2.31541 15.412 2.19117C15.5829 2.06692 15.7888 2 16.0001 2C16.2113 2 16.4172 2.06692 16.5881 2.19117C16.759 2.31541 16.8861 2.49059 16.9513 2.69158L19.9763 12.0041H30.0001C30.2136 12.004 30.4217 12.0723 30.5936 12.1989C30.7656 12.3256 30.8925 12.504 30.9557 12.708C31.019 12.9121 31.0152 13.131 30.945 13.3327C30.8748 13.5344 30.7419 13.7084 30.5657 13.8291L22.4376 19.3978L25.5707 28.681C25.6214 28.8312 25.6357 28.9915 25.6123 29.1484C25.589 29.3053 25.5286 29.4544 25.4362 29.5833C25.3438 29.7123 25.2221 29.8174 25.081 29.89C24.94 29.9626 24.7837 30.0007 24.6251 30.001Z"></path></svg>